# xmcd CD database file
#
# Track frame offsets:
#	150
#	16697
#	32972
#	49834
#	61659
#	75285
#	93576
#	104757
#	119628
#	134863
#	153225
#	173955
#	191158
#	202733
#	218411
#	233700
#
# Disc length: 3283 seconds
#
# Revision: 0
# Processed by: cddbd v1.4PL0 Copyright (c) Steve Scherf et al.
# Submitted via: CDex 1.50
#
DISCID=d60cd110
DTITLE=Omara Portuondo - Le World... Cuba
DYEAR=2002
DGENRE=Salsa
TTITLE0=Echale salsita
TTITLE1=Guajira guatanamera
TTITLE2=Yo si como candela
TTITLE3=Alli
TTITLE4=Le dije a una rosa
TTITLE5=La ùltima noche
TTITLE6=Y tù qué has echo eusebio delfin
TTITLE7=Nosotros
TTITLE8=Dos gardenias
TTITLE9=Ya no me quieres
TTITLE10=Bésame mucho
TTITLE11=Lo que me queda por vivir
TTITLE12=Siboney
TTITLE13=Como un maligro
TTITLE14=Evocacion
TTITLE15=Y has de llegar
EXTD=YEAR: 2002
EXTT0=
EXTT1=
EXTT2=
EXTT3=
EXTT4=
EXTT5=
EXTT6=
EXTT7=
EXTT8=
EXTT9=
EXTT10=
EXTT11=
EXTT12=
EXTT13=
EXTT14=
EXTT15=
PLAYORDER=
